# xmcd
#
# Track frame offsets: 
#        150
#        33372
#        65154
#        90462
#        120719
#        149238
#
# Disc length: 2443 seconds
#
# Revision: 3
# Processed by: cddbd v1.5.2PL0 Copyright (c) Steve Scherf et al.
# Submitted via: ExactAudioCopy v0.99pb4
#
DISCID=58098906
DTITLE=Donald Byrd - The Cat Walk
DYEAR=1962
DGENRE=Hard Bop
TTITLE0=Say You're Mine
TTITLE1=Duke's Mixture
TTITLE2=Each Time I Think of You
TTITLE3=The Cat Walk
TTITLE4=Cute
TTITLE5=Hello Bright Sunflower
EXTD=Donald Byrd: trumpet\nPepper Adams: baritone sax\nDuke Pearson: p
EXTD=iano\nLaymon Jackson: bass\nPhilly Joe Jones: drums\nRecorded by 
EXTD=Rudy Van Gelder at Van Gelder Studios, Englewood Cliffs US-NJ, 19
EXTD=61-05-02.\nProduced by Alfred Lion.\nOriginally issued as Blue No
EXTD=te BST 84075 (1962).\nReissue produced by Michael Cuscuna.\nRemas
EXTD=tered by Rudy Van Gelder, 2006.\nCD: EMI/Blue Note 74226 (2007-03
EXTD=20), UPC 094637422625, BMG D171112.
EXTT0=(Duke Pearson)
EXTT1=(Duke Pearson)
EXTT2=(Donald Byrd)
EXTT3=(Donald Byrd)
EXTT4=(Neal Hefti)
EXTT5=(Duke Pearson)
PLAYORDER=
